<svg width="621" height="195" viewBox="0 0 621 195" fill="none" xmlns="http://www.w3.org/2000/svg">
<path d="M16.167 194.243L621 145.473L609.148 -2.24249H0.403809L16.167 194.243Z" fill="url(#paint0_linear_2_478)"/>
<path d="M318.932 74.0131L316.791 97.2782H321.244L319.188 74.0131H318.932Z" fill="url(#paint1_linear_2_478)"/>
<path d="M399.695 62.7672C399.01 62.7672 398.44 63.1104 397.983 63.7969C397.526 64.4833 397.298 65.5708 397.298 67.0591V81.7392C397.298 84.4304 397.983 85.7752 399.352 85.7738H402.436V62.7672H399.695Z" fill="url(#paint2_linear_2_478)"/>
<path d="M352.242 75.6442V117.861H357.035L352.328 75.6442H352.242Z" fill="url(#paint3_linear_2_478)"/>
<path d="M366.028 75.6442L361.321 117.861H366.114V75.6442H366.028Z" fill="url(#paint4_linear_2_478)"/>
<path d="M316.448 101.657L314.994 117.862H323.126L321.673 101.657H316.448Z" fill="url(#paint5_linear_2_478)"/>
<path d="M399.352 90.067C397.983 90.067 397.298 91.4407 397.297 94.1881V107.665C397.297 110.585 397.24 112.846 397.126 114.447C397.013 116.036 396.76 117.174 396.365 117.862H402.435V90.067H399.352Z" fill="url(#paint6_linear_2_478)"/>
<g filter="url(#filter0_d_2_478)">
<path d="M89.0592 118.329C88.0972 118.33 87.1419 118.17 86.2324 117.856C85.3186 117.541 84.4852 117.028 83.7918 116.354C83.0378 115.607 82.4409 114.717 82.0364 113.735C81.5797 112.676 81.3513 111.403 81.3513 109.916V65.7034C81.3513 64.2165 81.5797 62.9431 82.0364 61.883C82.4409 60.9015 83.0378 60.0114 83.7918 59.2655C84.4855 58.5912 85.3188 58.0783 86.2324 57.763C87.1419 57.449 88.0972 57.2893 89.0592 57.2903H90.4283C91.3755 57.2966 92.3155 57.4562 93.2119 57.763C94.1433 58.0702 94.9937 58.5837 95.7 59.2655C96.4533 60.012 97.0502 60.9019 97.4554 61.883C97.9085 62.9431 98.135 64.2165 98.135 65.7034V82.0146H92.311V66.4801C92.311 64.9356 92.083 63.8341 91.627 63.1757C91.171 62.5173 90.6286 62.1882 90 62.1882H89.4853C88.8566 62.1882 88.3143 62.5029 87.8583 63.1324C87.4023 63.762 87.1739 64.9085 87.1732 66.5722V109.07C87.1732 110.673 87.4015 111.803 87.8583 112.461C88.315 113.12 88.8573 113.449 89.4853 113.449H90C90.6271 113.449 91.1695 113.12 91.627 112.461C92.0844 111.803 92.3125 110.673 92.311 109.07V93.5168H98.135V109.915C98.135 111.403 97.9066 112.676 97.4499 113.734C97.0446 114.715 96.4478 115.606 95.6945 116.353C94.9896 117.034 94.1407 117.548 93.2108 117.855C92.3144 118.162 91.3744 118.321 90.4272 118.328L89.0592 118.329Z" fill="url(#paint7_linear_2_478)"/>
<path d="M134.185 62.6984H128.448V117.817H122.625V62.6984H116.888V57.8051H134.185V62.6984Z" fill="url(#paint8_linear_2_478)"/>
<path d="M158.846 62.6984V85.6196H164.754V89.9981H158.846V112.919H166.895V117.817H153.023V57.8051H166.467V62.6984H158.846Z" fill="url(#paint9_linear_2_478)"/>
<path d="M202.86 57.8051V117.817H197.038V89.9981H192.157V117.817H186.334V57.8051H192.157V85.7062H197.038V57.8051H202.86Z" fill="url(#paint10_linear_2_478)"/>
<path d="M233.345 101.588H228.122L226.665 117.817H221.699L227.18 57.8095H234.543L240.366 117.817H234.8L233.345 101.588ZM228.464 97.2095H232.916L230.862 73.9443H230.604L228.464 97.2095Z" fill="url(#paint11_linear_2_478)"/>
<path d="M540.564 38.1373H260.514V117.862H274.661V57.8739H291.187V117.862H310.028L315.506 57.8739H322.871L328.692 117.862H347.36V57.8739H354.897L359.093 95.8226H359.178L363.459 57.8739H370.909V117.862H390.542C390.711 117.561 390.908 116.697 391.131 115.263C391.361 113.803 391.475 111.271 391.475 107.665V93.6721C391.475 91.8413 391.76 90.482 392.33 89.5943C392.901 88.7066 393.614 88.1489 394.471 87.921C393.615 87.6348 392.901 87.0481 392.33 86.1612C391.759 85.2743 391.474 83.9165 391.475 82.0878V66.2016C391.475 63.4542 392.231 61.3792 393.744 59.9766C395.185 58.6009 397.105 57.8443 399.095 57.8684H408.264V117.862H432.91V62.7673H427.168V57.8739H444.465V62.7673H438.728V117.862H463.132V57.8739H468.526V99.4243L475.89 57.8739H482.483V117.862H540.563L540.564 38.1373Z" fill="url(#paint12_linear_2_478)"/>
</g>
<path d="M477.518 75.7297L469.682 117.862H477.604V75.7297H477.518Z" fill="url(#paint13_linear_2_478)"/>
<path d="M285.365 62.1959H280.484V117.862H285.365V62.1959Z" fill="url(#paint14_linear_2_478)"/>
<defs>
<filter id="filter0_d_2_478" x="67.052" y="27.6511" width="487.812" height="108.79" filterUnits="userSpaceOnUse" color-interpolation-filters="sRGB">
<feFlood flood-opacity="0" result="BackgroundImageFix"/>
<feColorMatrix in="SourceAlpha" type="matrix" values="0 0 0 0 0 0 0 0 0 0 0 0 0 0 0 0 0 0 127 0" result="hardAlpha"/>
<feOffset dy="3.81316"/>
<feGaussianBlur stdDeviation="7.14967"/>
<feComposite in2="hardAlpha" operator="out"/>
<feColorMatrix type="matrix" values="0 0 0 0 0 0 0 0 0 0 0 0 0 0 0 0 0 0 0.25 0"/>
<feBlend mode="normal" in2="BackgroundImageFix" result="effect1_dropShadow_2_478"/>
<feBlend mode="normal" in="SourceGraphic" in2="effect1_dropShadow_2_478" result="shape"/>
</filter>
<linearGradient id="paint0_linear_2_478" x1="0.403809" y1="96" x2="621" y2="96" gradientUnits="userSpaceOnUse">
<stop stop-color="#DC4127"/>
<stop offset="0.63" stop-color="#B12E1D"/>
<stop offset="1" stop-color="#9D2518"/>
</linearGradient>
<linearGradient id="paint1_linear_2_478" x1="316.791" y1="85.6451" x2="321.244" y2="85.6451" gradientUnits="userSpaceOnUse">
<stop stop-color="white"/>
<stop offset="1" stop-color="#E3E3E3"/>
</linearGradient>
<linearGradient id="paint2_linear_2_478" x1="397.298" y1="74.2705" x2="402.436" y2="74.2705" gradientUnits="userSpaceOnUse">
<stop stop-color="white"/>
<stop offset="1" stop-color="#E3E3E3"/>
</linearGradient>
<linearGradient id="paint3_linear_2_478" x1="352.242" y1="96.7534" x2="357.035" y2="96.7534" gradientUnits="userSpaceOnUse">
<stop stop-color="white"/>
<stop offset="1" stop-color="#E3E3E3"/>
</linearGradient>
<linearGradient id="paint4_linear_2_478" x1="361.321" y1="96.7534" x2="366.114" y2="96.7534" gradientUnits="userSpaceOnUse">
<stop stop-color="white"/>
<stop offset="1" stop-color="#E3E3E3"/>
</linearGradient>
<linearGradient id="paint5_linear_2_478" x1="314.994" y1="109.759" x2="323.126" y2="109.759" gradientUnits="userSpaceOnUse">
<stop stop-color="white"/>
<stop offset="1" stop-color="#E3E3E3"/>
</linearGradient>
<linearGradient id="paint6_linear_2_478" x1="396.365" y1="103.964" x2="402.435" y2="103.964" gradientUnits="userSpaceOnUse">
<stop stop-color="white"/>
<stop offset="1" stop-color="#E3E3E3"/>
</linearGradient>
<linearGradient id="paint7_linear_2_478" x1="81.3502" y1="87.809" x2="98.135" y2="87.809" gradientUnits="userSpaceOnUse">
<stop stop-color="white"/>
<stop offset="1" stop-color="#E3E3E3"/>
</linearGradient>
<linearGradient id="paint8_linear_2_478" x1="116.888" y1="87.8089" x2="134.185" y2="87.8089" gradientUnits="userSpaceOnUse">
<stop stop-color="white"/>
<stop offset="1" stop-color="#E3E3E3"/>
</linearGradient>
<linearGradient id="paint9_linear_2_478" x1="153.023" y1="87.8089" x2="166.895" y2="87.8089" gradientUnits="userSpaceOnUse">
<stop stop-color="white"/>
<stop offset="1" stop-color="#E3E3E3"/>
</linearGradient>
<linearGradient id="paint10_linear_2_478" x1="186.334" y1="87.8089" x2="202.86" y2="87.8089" gradientUnits="userSpaceOnUse">
<stop stop-color="white"/>
<stop offset="1" stop-color="#E3E3E3"/>
</linearGradient>
<linearGradient id="paint11_linear_2_478" x1="221.699" y1="87.8089" x2="240.366" y2="87.8089" gradientUnits="userSpaceOnUse">
<stop stop-color="white"/>
<stop offset="1" stop-color="#E3E3E3"/>
</linearGradient>
<linearGradient id="paint12_linear_2_478" x1="260.514" y1="78" x2="540.564" y2="78" gradientUnits="userSpaceOnUse">
<stop stop-color="white"/>
<stop offset="1" stop-color="#E3E3E3"/>
</linearGradient>
<linearGradient id="paint13_linear_2_478" x1="469.682" y1="96.7957" x2="477.604" y2="96.7957" gradientUnits="userSpaceOnUse">
<stop stop-color="white"/>
<stop offset="1" stop-color="#E3E3E3"/>
</linearGradient>
<linearGradient id="paint14_linear_2_478" x1="280.484" y1="90.0293" x2="285.365" y2="90.0293" gradientUnits="userSpaceOnUse">
<stop stop-color="white"/>
<stop offset="1" stop-color="#E3E3E3"/>
</linearGradient>
</defs>
</svg>
